<svg xmlns="http://www.w3.org/2000/svg" width="512" height="512" viewBox="0 0 512.002 512.002"><path d="M511.89 475.873l-29.997-165.398a7.514 7.514 0 10-14.788 2.681l12.683 69.933-97.782-113.58 65.766-14.678 9.738 5.421 4.228 23.316a7.516 7.516 0 0014.789-2.681l-4.864-26.814a7.513 7.513 0 00-3.738-5.225l-15.343-8.541h-.001l-48.488-26.991h-.001L366.68 192.49l-.002-.001-.008-.005a7.458 7.458 0 00-.888-.417c-.095-.037-.192-.062-.289-.095a7.714 7.714 0 00-.638-.2c-.122-.031-.245-.049-.369-.073a7.685 7.685 0 00-.582-.099c-.132-.016-.263-.021-.396-.029a7.671 7.671 0 00-.567-.02c-.135.001-.269.011-.404.019a6.96 6.96 0 00-.962.125 7.88 7.88 0 00-.944.248 7.734 7.734 0 00-.517.198c-.132.056-.263.111-.394.175-.057.028-.116.047-.172.076l-17.168 8.949c12.772-23.815 19.224-46.88 19.224-68.946 0-57.965-47.158-105.123-105.123-105.123S151.364 74.43 151.364 132.395c0 22.28 6.572 45.579 19.594 69.64l-18.499-9.643c-.057-.03-.118-.05-.176-.078-.126-.062-.256-.116-.384-.17a7.765 7.765 0 00-.525-.201 7.878 7.878 0 00-1.347-.318 7.285 7.285 0 00-.551-.054c-.138-.009-.276-.018-.413-.02a7.801 7.801 0 00-.551.019c-.138.009-.276.014-.414.031-.187.022-.372.059-.557.095-.131.026-.263.045-.393.078-.205.052-.406.121-.607.19-.105.036-.212.064-.317.105a7.57 7.57 0 00-.885.416l-.008.005-.002.001-101.243 56.357a7.507 7.507 0 00-3.738 5.225L11.831 411.308a7.515 7.515 0 006.054 8.735 7.512 7.512 0 008.735-6.054l8.555-47.171 97.261-51.414-7.822 100.994-107.157 48.115 3.771-20.8a7.515 7.515 0 00-14.788-2.681L.121 475.874a7.515 7.515 0 0010.471 8.196l121.168-54.405 121.117 54.382.009.004.041.018c.068.031.139.052.209.081a7.571 7.571 0 00.668.242c.072.022.144.041.216.061a6.512 6.512 0 00.754.163c.075.012.149.03.225.04l.153.02c.251.029.505.044.757.047.032 0 .064.006.096.006l.048-.003c.304-.002.606-.027.909-.066.037-.005.075-.003.113-.009.057-.008.113-.027.171-.036.235-.039.47-.09.702-.153.064-.017.129-.027.193-.045l.02-.004c.021-.006.04-.017.061-.024.292-.09.579-.193.862-.32l121.164-54.405 121.167 54.404c.117.052.237.091.357.137.118.046.234.097.355.137.157.052.318.091.478.132.099.026.195.058.296.079.193.042.388.069.583.096.07.009.138.025.208.033.267.029.534.044.801.044h.003c.365 0 .73-.037 1.094-.09a7.343 7.343 0 001.319-.31c.022-.008.044-.019.066-.026.232-.081.463-.17.689-.277.066-.031.123-.075.188-.108.189-.095.371-.204.553-.317.182-.111.363-.223.534-.35.059-.044.125-.075.184-.12.132-.103.247-.222.371-.334.099-.089.202-.173.297-.266.228-.225.436-.465.629-.714.036-.047.079-.088.115-.136.224-.304.422-.623.597-.955.049-.093.086-.192.132-.288.116-.244.223-.49.313-.745.045-.128.081-.258.119-.39a7.448 7.448 0 00.293-1.902c.003-.123.013-.245.01-.37a6.985 6.985 0 00-.109-1.155zM379.797 216.992l-7.704 1.802-.493-6.365 8.197 4.563zm-16.394 84.226l-31.384-24.505a7.518 7.518 0 00-7.624-.968l-60.844 26.482v-8.235c4.546-3.703 14.875-12.433 27.255-24.962l67.797-29.784 4.8 61.972zm-6.99-90.24l.96 12.392-42.353 18.607a303.601 303.601 0 0011.765-15.555l29.628-15.444zm-200.815 0l31.15 16.238c4.613 6.487 9.666 13.021 15.173 19.598a360.461 360.461 0 0014.231 15.984l-63.86-9.138 3.306-42.682zm-21.79 86.7l-95.224 50.336 4.638-25.574.119-.659 92.37-48.681-1.903 24.578zm3.276-42.29l-90.335 47.609 7.752-42.744 85.91-47.823-2.159 27.881-1.168 15.077zm2.578 161.349l7.115-91.869 88.77 134.922-95.885-43.053zm108.828-28.964l-46.293-72.958 46.293 5.543v67.415zm0-82.553l-60.229-7.211a7.516 7.516 0 00-7.238 11.489l67.467 106.328v36.294l-99.819-151.715 2.458-31.728 82.913 11.864c6.253 5.803 11.322 10.112 14.447 12.685v11.994zm7.997-24.917c-18.977-16.005-90.093-80.494-90.093-147.907-.001-49.678 40.415-90.094 90.093-90.094s90.094 40.416 90.094 90.094c0 67.413-71.117 131.903-90.094 147.907zm7.033 185.299v-33.357l22.466 23.269-22.466 10.088zm37.04-16.632l-37.04-38.364V318.63l62.772-27.32 38.681 30.203 7.375 95.224-71.788 32.233zm72.706-215.017l26.055-6.093 18.478 10.286 10.224 5.692-53.075 11.845-1.682-21.73zm14.131 182.445l-5.867-75.75 96.54 116.464-90.673-40.714zm-7.878-101.727l-2.042-26.37-.086-1.117 107.69 125.09 6.905 38.073-112.467-135.676z" fill="#fff" data-original="#000000" xmlns="http://www.w3.org/2000/svg"/><path d="M256.487 85.95a7.515 7.515 0 100 15.03c17.323 0 31.416 14.093 31.416 31.416 0 17.322-14.093 31.416-31.416 31.416s-31.416-14.093-31.416-31.416c0-8.287 3.198-16.106 9.006-22.018a7.513 7.513 0 00-.094-10.626 7.513 7.513 0 00-10.627.094c-8.586 8.739-13.314 20.299-13.314 32.55 0 25.61 20.835 46.446 46.446 46.446s46.446-20.836 46.446-46.446c-.001-25.611-20.836-46.446-46.447-46.446z" fill="#fff" data-original="#000000" xmlns="http://www.w3.org/2000/svg"/></svg>